<mxfile host="app.diagrams.net" modified="2023-12-29T07:23:01.242Z" agent="Mozilla/5.0 (Windows NT 10.0; Win64; x64) AppleWebKit/537.36 (KHTML, like Gecko) Chrome/120.0.0.0 Safari/537.36 Edg/120.0.0.0" etag="kysk1LkvKpdcYi_KkkZX" version="22.1.15" type="device" pages="2">
  <diagram name="Page-1" id="Hw8qfBg_lGR4yFsWSw3P">
    <mxGraphModel dx="1988" dy="152" grid="1" gridSize="10" guides="1" tooltips="1" connect="1" arrows="1" fold="1" page="1" pageScale="1" pageWidth="850" pageHeight="1100" math="0" shadow="0">
      <root>
        <mxCell id="0" />
        <mxCell id="1" parent="0" />
        <mxCell id="ue-k9ExeixxjrkeB6lHq-33" value="Manage Post" style="ellipse;whiteSpace=wrap;html=1;rotation=0;" parent="1" vertex="1">
          <mxGeometry x="-520" y="620" width="110" height="50" as="geometry" />
        </mxCell>
        <mxCell id="XR87P99BnGPD38bFnwmb-3" value="&lt;font style=&quot;font-size: 14px;&quot;&gt;Manager&lt;/font&gt;" style="shape=umlActor;verticalLabelPosition=bottom;verticalAlign=top;html=1;outlineConnect=0;fontStyle=1;strokeWidth=3;" parent="1" vertex="1">
          <mxGeometry x="-270" y="500" width="30" height="60" as="geometry" />
        </mxCell>
        <mxCell id="XR87P99BnGPD38bFnwmb-5" value="" style="rounded=0;whiteSpace=wrap;html=1;" parent="1" vertex="1">
          <mxGeometry x="-1220" y="190" width="920" height="980" as="geometry" />
        </mxCell>
        <mxCell id="XR87P99BnGPD38bFnwmb-6" value="" style="endArrow=none;html=1;rounded=0;entryX=0;entryY=0.3333333333333333;entryDx=0;entryDy=0;entryPerimeter=0;exitX=1;exitY=1;exitDx=0;exitDy=0;" parent="1" source="XR87P99BnGPD38bFnwmb-10" target="XR87P99BnGPD38bFnwmb-3" edge="1">
          <mxGeometry width="50" height="50" relative="1" as="geometry">
            <mxPoint x="-430" y="340" as="sourcePoint" />
            <mxPoint x="-470" y="470" as="targetPoint" />
          </mxGeometry>
        </mxCell>
        <mxCell id="XR87P99BnGPD38bFnwmb-10" value="Manage User" style="ellipse;whiteSpace=wrap;html=1;" parent="1" vertex="1">
          <mxGeometry x="-440" y="370" width="110" height="50" as="geometry" />
        </mxCell>
        <mxCell id="XR87P99BnGPD38bFnwmb-11" value="Search user information" style="ellipse;whiteSpace=wrap;html=1;" parent="1" vertex="1">
          <mxGeometry x="-425" y="275" width="110" height="60" as="geometry" />
        </mxCell>
        <mxCell id="XR87P99BnGPD38bFnwmb-12" value="View user information" style="ellipse;whiteSpace=wrap;html=1;" parent="1" vertex="1">
          <mxGeometry x="-550" y="290" width="110" height="60" as="geometry" />
        </mxCell>
        <mxCell id="XR87P99BnGPD38bFnwmb-13" value="Confirm Seller role" style="ellipse;whiteSpace=wrap;html=1;" parent="1" vertex="1">
          <mxGeometry x="-625" y="345" width="100" height="70" as="geometry" />
        </mxCell>
        <mxCell id="XR87P99BnGPD38bFnwmb-14" value="" style="endArrow=classic;html=1;rounded=0;entryX=0;entryY=0;entryDx=0;entryDy=0;exitX=1;exitY=1;exitDx=0;exitDy=0;" parent="1" source="XR87P99BnGPD38bFnwmb-15" target="XR87P99BnGPD38bFnwmb-13" edge="1">
          <mxGeometry width="50" height="50" relative="1" as="geometry">
            <mxPoint x="-640" y="350" as="sourcePoint" />
            <mxPoint x="-590" y="300" as="targetPoint" />
          </mxGeometry>
        </mxCell>
        <mxCell id="XR87P99BnGPD38bFnwmb-15" value="Approve request" style="ellipse;whiteSpace=wrap;html=1;" parent="1" vertex="1">
          <mxGeometry x="-710" y="230" width="105" height="60" as="geometry" />
        </mxCell>
        <mxCell id="XR87P99BnGPD38bFnwmb-16" value="Deny request" style="ellipse;whiteSpace=wrap;html=1;" parent="1" vertex="1">
          <mxGeometry x="-770" y="335" width="105" height="60" as="geometry" />
        </mxCell>
        <mxCell id="XR87P99BnGPD38bFnwmb-17" value="" style="endArrow=classic;html=1;rounded=0;exitX=1;exitY=0.5;exitDx=0;exitDy=0;entryX=0;entryY=0;entryDx=0;entryDy=0;" parent="1" source="XR87P99BnGPD38bFnwmb-16" target="XR87P99BnGPD38bFnwmb-13" edge="1">
          <mxGeometry width="50" height="50" relative="1" as="geometry">
            <mxPoint x="-650.48" y="379.86" as="sourcePoint" />
            <mxPoint x="-625.48" y="408.86" as="targetPoint" />
          </mxGeometry>
        </mxCell>
        <mxCell id="XR87P99BnGPD38bFnwmb-18" value="" style="endArrow=classic;html=1;rounded=0;exitX=0.5;exitY=1;exitDx=0;exitDy=0;entryX=0.5;entryY=0;entryDx=0;entryDy=0;" parent="1" source="XR87P99BnGPD38bFnwmb-11" target="XR87P99BnGPD38bFnwmb-10" edge="1">
          <mxGeometry width="50" height="50" relative="1" as="geometry">
            <mxPoint x="-500" y="350" as="sourcePoint" />
            <mxPoint x="-445" y="320" as="targetPoint" />
            <Array as="points" />
          </mxGeometry>
        </mxCell>
        <mxCell id="XR87P99BnGPD38bFnwmb-19" value="" style="endArrow=classic;html=1;rounded=0;exitX=1;exitY=1;exitDx=0;exitDy=0;entryX=0;entryY=0;entryDx=0;entryDy=0;" parent="1" source="XR87P99BnGPD38bFnwmb-12" target="XR87P99BnGPD38bFnwmb-10" edge="1">
          <mxGeometry width="50" height="50" relative="1" as="geometry">
            <mxPoint x="-425" y="380" as="sourcePoint" />
            <mxPoint x="-410" y="320" as="targetPoint" />
          </mxGeometry>
        </mxCell>
        <mxCell id="XR87P99BnGPD38bFnwmb-20" value="" style="endArrow=classic;html=1;rounded=0;exitX=1;exitY=0.5;exitDx=0;exitDy=0;entryX=0;entryY=0.5;entryDx=0;entryDy=0;" parent="1" source="XR87P99BnGPD38bFnwmb-13" target="XR87P99BnGPD38bFnwmb-10" edge="1">
          <mxGeometry width="50" height="50" relative="1" as="geometry">
            <mxPoint x="-399" y="503" as="sourcePoint" />
            <mxPoint x="-490" y="340" as="targetPoint" />
          </mxGeometry>
        </mxCell>
        <mxCell id="XR87P99BnGPD38bFnwmb-21" value="Manage Category" style="ellipse;whiteSpace=wrap;html=1;" parent="1" vertex="1">
          <mxGeometry x="-535" y="450" width="110" height="50" as="geometry" />
        </mxCell>
        <mxCell id="XR87P99BnGPD38bFnwmb-22" value="" style="endArrow=none;html=1;rounded=0;entryX=0;entryY=0.3333333333333333;entryDx=0;entryDy=0;entryPerimeter=0;exitX=1;exitY=0.35;exitDx=0;exitDy=0;exitPerimeter=0;" parent="1" source="XR87P99BnGPD38bFnwmb-21" target="XR87P99BnGPD38bFnwmb-3" edge="1">
          <mxGeometry width="50" height="50" relative="1" as="geometry">
            <mxPoint x="-329.89" y="526.66" as="sourcePoint" />
            <mxPoint x="-253.89" y="633.66" as="targetPoint" />
          </mxGeometry>
        </mxCell>
        <mxCell id="XR87P99BnGPD38bFnwmb-23" value="Add new category" style="ellipse;whiteSpace=wrap;html=1;" parent="1" vertex="1">
          <mxGeometry x="-700" y="410" width="110" height="50" as="geometry" />
        </mxCell>
        <mxCell id="XR87P99BnGPD38bFnwmb-24" value="Edit category" style="ellipse;whiteSpace=wrap;html=1;" parent="1" vertex="1">
          <mxGeometry x="-700" y="470" width="110" height="40" as="geometry" />
        </mxCell>
        <mxCell id="XR87P99BnGPD38bFnwmb-25" value="Delete category" style="ellipse;whiteSpace=wrap;html=1;" parent="1" vertex="1">
          <mxGeometry x="-700" y="520" width="110" height="40" as="geometry" />
        </mxCell>
        <mxCell id="XR87P99BnGPD38bFnwmb-26" value="" style="endArrow=classic;html=1;rounded=0;entryX=0;entryY=0;entryDx=0;entryDy=0;exitX=1;exitY=0.5;exitDx=0;exitDy=0;" parent="1" source="XR87P99BnGPD38bFnwmb-23" target="XR87P99BnGPD38bFnwmb-21" edge="1">
          <mxGeometry width="50" height="50" relative="1" as="geometry">
            <mxPoint x="-402" y="479.38" as="sourcePoint" />
            <mxPoint x="-447" y="479.38" as="targetPoint" />
          </mxGeometry>
        </mxCell>
        <mxCell id="XR87P99BnGPD38bFnwmb-30" value="" style="endArrow=classic;html=1;rounded=0;entryX=0;entryY=0.5;entryDx=0;entryDy=0;exitX=1;exitY=0.5;exitDx=0;exitDy=0;" parent="1" source="XR87P99BnGPD38bFnwmb-24" target="XR87P99BnGPD38bFnwmb-21" edge="1">
          <mxGeometry width="50" height="50" relative="1" as="geometry">
            <mxPoint x="-455" y="545" as="sourcePoint" />
            <mxPoint x="-530" y="500" as="targetPoint" />
          </mxGeometry>
        </mxCell>
        <mxCell id="XR87P99BnGPD38bFnwmb-31" value="" style="endArrow=classic;html=1;rounded=0;entryX=0;entryY=1;entryDx=0;entryDy=0;exitX=1;exitY=0.5;exitDx=0;exitDy=0;" parent="1" source="XR87P99BnGPD38bFnwmb-25" target="XR87P99BnGPD38bFnwmb-21" edge="1">
          <mxGeometry width="50" height="50" relative="1" as="geometry">
            <mxPoint x="-435" y="582.5" as="sourcePoint" />
            <mxPoint x="-485" y="577.5" as="targetPoint" />
          </mxGeometry>
        </mxCell>
        <mxCell id="XR87P99BnGPD38bFnwmb-34" value="Manage Gig" style="ellipse;whiteSpace=wrap;html=1;strokeColor=#c61010;fontColor=#FF6666;" parent="1" vertex="1">
          <mxGeometry x="-540" y="540" width="110" height="50" as="geometry" />
        </mxCell>
        <mxCell id="XR87P99BnGPD38bFnwmb-39" value="" style="endArrow=none;html=1;rounded=0;entryX=0;entryY=0.3333333333333333;entryDx=0;entryDy=0;entryPerimeter=0;exitX=1;exitY=0.5;exitDx=0;exitDy=0;" parent="1" source="XR87P99BnGPD38bFnwmb-34" target="XR87P99BnGPD38bFnwmb-3" edge="1">
          <mxGeometry width="50" height="50" relative="1" as="geometry">
            <mxPoint x="-350" y="500" as="sourcePoint" />
            <mxPoint x="-300" y="450" as="targetPoint" />
          </mxGeometry>
        </mxCell>
        <mxCell id="XR87P99BnGPD38bFnwmb-40" value="Search gig" style="ellipse;whiteSpace=wrap;html=1;" parent="1" vertex="1">
          <mxGeometry x="-625" y="640" width="110" height="60" as="geometry" />
        </mxCell>
        <mxCell id="XR87P99BnGPD38bFnwmb-41" value="View gig" style="ellipse;whiteSpace=wrap;html=1;" parent="1" vertex="1">
          <mxGeometry x="-500" y="615" width="110" height="60" as="geometry" />
        </mxCell>
        <mxCell id="XR87P99BnGPD38bFnwmb-42" value="Confirm Gig" style="ellipse;whiteSpace=wrap;html=1;fontColor=#d32727;strokeColor=#FF3333;" parent="1" vertex="1">
          <mxGeometry x="-677.5" y="572.5" width="100" height="70" as="geometry" />
        </mxCell>
        <mxCell id="XR87P99BnGPD38bFnwmb-45" value="" style="endArrow=classic;html=1;rounded=0;exitX=1;exitY=0.5;exitDx=0;exitDy=0;entryX=0;entryY=0.5;entryDx=0;entryDy=0;" parent="1" source="XR87P99BnGPD38bFnwmb-42" target="XR87P99BnGPD38bFnwmb-34" edge="1">
          <mxGeometry width="50" height="50" relative="1" as="geometry">
            <mxPoint x="-510" y="610" as="sourcePoint" />
            <mxPoint x="-460" y="560" as="targetPoint" />
          </mxGeometry>
        </mxCell>
        <mxCell id="XR87P99BnGPD38bFnwmb-46" value="" style="endArrow=classic;html=1;rounded=0;exitX=1;exitY=0;exitDx=0;exitDy=0;entryX=0.285;entryY=1.008;entryDx=0;entryDy=0;entryPerimeter=0;" parent="1" source="XR87P99BnGPD38bFnwmb-40" target="XR87P99BnGPD38bFnwmb-34" edge="1">
          <mxGeometry width="50" height="50" relative="1" as="geometry">
            <mxPoint x="-510" y="610" as="sourcePoint" />
            <mxPoint x="-460" y="560" as="targetPoint" />
          </mxGeometry>
        </mxCell>
        <mxCell id="XR87P99BnGPD38bFnwmb-47" value="" style="endArrow=classic;html=1;rounded=0;exitX=0.5;exitY=0;exitDx=0;exitDy=0;entryX=0.69;entryY=1.05;entryDx=0;entryDy=0;entryPerimeter=0;" parent="1" source="XR87P99BnGPD38bFnwmb-41" target="XR87P99BnGPD38bFnwmb-34" edge="1">
          <mxGeometry width="50" height="50" relative="1" as="geometry">
            <mxPoint x="-520" y="600" as="sourcePoint" />
            <mxPoint x="-470" y="550" as="targetPoint" />
          </mxGeometry>
        </mxCell>
        <mxCell id="XR87P99BnGPD38bFnwmb-48" value="View Order" style="ellipse;whiteSpace=wrap;html=1;rotation=0;" parent="1" vertex="1">
          <mxGeometry x="-490" y="720" width="110" height="50" as="geometry" />
        </mxCell>
        <mxCell id="XR87P99BnGPD38bFnwmb-49" value="" style="endArrow=none;html=1;rounded=0;entryX=0;entryY=0.3333333333333333;entryDx=0;entryDy=0;entryPerimeter=0;exitX=1;exitY=0.5;exitDx=0;exitDy=0;" parent="1" source="XR87P99BnGPD38bFnwmb-48" target="XR87P99BnGPD38bFnwmb-3" edge="1">
          <mxGeometry width="50" height="50" relative="1" as="geometry">
            <mxPoint x="-430" y="670" as="sourcePoint" />
            <mxPoint x="-380" y="620" as="targetPoint" />
          </mxGeometry>
        </mxCell>
        <mxCell id="XR87P99BnGPD38bFnwmb-52" value="&lt;b&gt;&lt;font style=&quot;font-size: 15px;&quot;&gt;Admin&lt;/font&gt;&lt;/b&gt;" style="shape=umlActor;verticalLabelPosition=bottom;verticalAlign=top;html=1;outlineConnect=0;strokeWidth=3;" parent="1" vertex="1">
          <mxGeometry x="-270" y="860" width="30" height="60" as="geometry" />
        </mxCell>
        <mxCell id="XR87P99BnGPD38bFnwmb-62" value="&lt;font style=&quot;font-size: 11px;&quot;&gt;Create Manager role&lt;/font&gt;" style="ellipse;whiteSpace=wrap;html=1;rotation=0;" parent="1" vertex="1">
          <mxGeometry x="-500" y="815" width="110" height="60" as="geometry" />
        </mxCell>
        <mxCell id="XR87P99BnGPD38bFnwmb-64" value="View report" style="ellipse;whiteSpace=wrap;html=1;rotation=0;" parent="1" vertex="1">
          <mxGeometry x="-500" y="940" width="110" height="50" as="geometry" />
        </mxCell>
        <mxCell id="XR87P99BnGPD38bFnwmb-65" value="" style="endArrow=none;html=1;rounded=0;exitX=0;exitY=0.3333333333333333;exitDx=0;exitDy=0;exitPerimeter=0;entryX=1;entryY=0.5;entryDx=0;entryDy=0;" parent="1" source="XR87P99BnGPD38bFnwmb-52" target="XR87P99BnGPD38bFnwmb-64" edge="1">
          <mxGeometry width="50" height="50" relative="1" as="geometry">
            <mxPoint x="-660" y="1150" as="sourcePoint" />
            <mxPoint x="-610" y="1100" as="targetPoint" />
          </mxGeometry>
        </mxCell>
        <mxCell id="XR87P99BnGPD38bFnwmb-68" value="&lt;b style=&quot;&quot;&gt;&lt;font style=&quot;font-size: 15px;&quot;&gt;Guest&lt;/font&gt;&lt;/b&gt;" style="shape=umlActor;verticalLabelPosition=bottom;verticalAlign=top;html=1;outlineConnect=0;strokeWidth=3;fontSize=13;" parent="1" vertex="1">
          <mxGeometry x="-1290" y="1000" width="30" height="60" as="geometry" />
        </mxCell>
        <mxCell id="XR87P99BnGPD38bFnwmb-79" value="Sign Up" style="ellipse;whiteSpace=wrap;html=1;rotation=0;" parent="1" vertex="1">
          <mxGeometry x="-1170" y="1110.5" width="110" height="50" as="geometry" />
        </mxCell>
        <mxCell id="XR87P99BnGPD38bFnwmb-82" value="Filter" style="ellipse;whiteSpace=wrap;html=1;rotation=0;" parent="1" vertex="1">
          <mxGeometry x="-1050" y="1080" width="110" height="50" as="geometry" />
        </mxCell>
        <mxCell id="XR87P99BnGPD38bFnwmb-85" value="Search by key" style="ellipse;whiteSpace=wrap;html=1;rotation=0;" parent="1" vertex="1">
          <mxGeometry x="-1180" y="920" width="110" height="50" as="geometry" />
        </mxCell>
        <mxCell id="XR87P99BnGPD38bFnwmb-86" value="View Detail Post" style="ellipse;whiteSpace=wrap;html=1;rotation=0;" parent="1" vertex="1">
          <mxGeometry x="-1080" y="960" width="110" height="50" as="geometry" />
        </mxCell>
        <mxCell id="XR87P99BnGPD38bFnwmb-87" value="" style="endArrow=none;html=1;rounded=0;exitX=1;exitY=0.3333333333333333;exitDx=0;exitDy=0;exitPerimeter=0;entryX=0;entryY=0.5;entryDx=0;entryDy=0;" parent="1" source="XR87P99BnGPD38bFnwmb-68" target="XR87P99BnGPD38bFnwmb-85" edge="1">
          <mxGeometry width="50" height="50" relative="1" as="geometry">
            <mxPoint x="-1230" y="950" as="sourcePoint" />
            <mxPoint x="-1180" y="900" as="targetPoint" />
          </mxGeometry>
        </mxCell>
        <mxCell id="XR87P99BnGPD38bFnwmb-88" value="" style="endArrow=none;html=1;rounded=0;exitX=1;exitY=0.3333333333333333;exitDx=0;exitDy=0;exitPerimeter=0;entryX=0;entryY=0.5;entryDx=0;entryDy=0;" parent="1" source="XR87P99BnGPD38bFnwmb-68" target="XR87P99BnGPD38bFnwmb-82" edge="1">
          <mxGeometry width="50" height="50" relative="1" as="geometry">
            <mxPoint x="-1230" y="950" as="sourcePoint" />
            <mxPoint x="-1180" y="900" as="targetPoint" />
          </mxGeometry>
        </mxCell>
        <mxCell id="XR87P99BnGPD38bFnwmb-89" value="" style="endArrow=none;html=1;rounded=0;exitX=1;exitY=0.3333333333333333;exitDx=0;exitDy=0;exitPerimeter=0;entryX=0;entryY=0;entryDx=0;entryDy=0;" parent="1" source="XR87P99BnGPD38bFnwmb-68" target="XR87P99BnGPD38bFnwmb-79" edge="1">
          <mxGeometry width="50" height="50" relative="1" as="geometry">
            <mxPoint x="-1230" y="950" as="sourcePoint" />
            <mxPoint x="-1180" y="900" as="targetPoint" />
          </mxGeometry>
        </mxCell>
        <mxCell id="XR87P99BnGPD38bFnwmb-95" value="&lt;b style=&quot;&quot;&gt;&lt;font style=&quot;font-size: 15px;&quot;&gt;Seller&lt;/font&gt;&lt;/b&gt;" style="shape=umlActor;verticalLabelPosition=bottom;verticalAlign=top;html=1;outlineConnect=0;strokeWidth=3;fontSize=13;" parent="1" vertex="1">
          <mxGeometry x="-1290" y="640" width="30" height="60" as="geometry" />
        </mxCell>
        <mxCell id="XR87P99BnGPD38bFnwmb-98" value="Manage post" style="ellipse;whiteSpace=wrap;html=1;rotation=0;" parent="1" vertex="1">
          <mxGeometry x="-1130" y="635" width="110" height="50" as="geometry" />
        </mxCell>
        <mxCell id="XR87P99BnGPD38bFnwmb-99" value="Create post" style="ellipse;whiteSpace=wrap;html=1;rotation=0;" parent="1" vertex="1">
          <mxGeometry x="-970" y="635" width="110" height="50" as="geometry" />
        </mxCell>
        <mxCell id="XR87P99BnGPD38bFnwmb-100" value="Approve gig" style="ellipse;whiteSpace=wrap;html=1;" parent="1" vertex="1">
          <mxGeometry x="-805" y="585" width="100" height="45" as="geometry" />
        </mxCell>
        <mxCell id="XR87P99BnGPD38bFnwmb-101" value="Deny gig" style="ellipse;whiteSpace=wrap;html=1;" parent="1" vertex="1">
          <mxGeometry x="-792.5" y="670" width="100" height="50" as="geometry" />
        </mxCell>
        <mxCell id="XR87P99BnGPD38bFnwmb-102" value="" style="endArrow=classic;html=1;rounded=0;entryX=0;entryY=0.5;entryDx=0;entryDy=0;exitX=1;exitY=0.5;exitDx=0;exitDy=0;" parent="1" source="XR87P99BnGPD38bFnwmb-100" target="XR87P99BnGPD38bFnwmb-42" edge="1">
          <mxGeometry width="50" height="50" relative="1" as="geometry">
            <mxPoint x="-870" y="700" as="sourcePoint" />
            <mxPoint x="-820" y="650" as="targetPoint" />
          </mxGeometry>
        </mxCell>
        <mxCell id="XR87P99BnGPD38bFnwmb-103" value="" style="endArrow=classic;html=1;rounded=0;entryX=0;entryY=1;entryDx=0;entryDy=0;exitX=1;exitY=0.5;exitDx=0;exitDy=0;" parent="1" source="XR87P99BnGPD38bFnwmb-101" target="XR87P99BnGPD38bFnwmb-42" edge="1">
          <mxGeometry width="50" height="50" relative="1" as="geometry">
            <mxPoint x="-870" y="700" as="sourcePoint" />
            <mxPoint x="-820" y="650" as="targetPoint" />
          </mxGeometry>
        </mxCell>
        <mxCell id="XR87P99BnGPD38bFnwmb-104" value="" style="endArrow=classic;html=1;rounded=0;exitX=0;exitY=0.5;exitDx=0;exitDy=0;fontSize=9;strokeWidth=1;dashed=1;entryX=1;entryY=0;entryDx=0;entryDy=0;" parent="1" source="XR87P99BnGPD38bFnwmb-100" target="XR87P99BnGPD38bFnwmb-99" edge="1">
          <mxGeometry width="50" height="50" relative="1" as="geometry">
            <mxPoint x="-870" y="700" as="sourcePoint" />
            <mxPoint x="-860" y="630" as="targetPoint" />
          </mxGeometry>
        </mxCell>
        <mxCell id="XR87P99BnGPD38bFnwmb-106" value="&lt;font style=&quot;font-size: 11px;&quot;&gt;&amp;lt;&amp;lt;include&amp;gt;&amp;gt;&lt;/font&gt;" style="edgeLabel;html=1;align=center;verticalAlign=middle;resizable=0;points=[];" parent="XR87P99BnGPD38bFnwmb-104" connectable="0" vertex="1">
          <mxGeometry x="-0.2188" relative="1" as="geometry">
            <mxPoint x="-10" y="6" as="offset" />
          </mxGeometry>
        </mxCell>
        <mxCell id="XR87P99BnGPD38bFnwmb-105" value="" style="endArrow=classic;html=1;rounded=0;exitX=0;exitY=0.5;exitDx=0;exitDy=0;entryX=1;entryY=1;entryDx=0;entryDy=0;dashed=1;" parent="1" source="XR87P99BnGPD38bFnwmb-101" target="XR87P99BnGPD38bFnwmb-99" edge="1">
          <mxGeometry width="50" height="50" relative="1" as="geometry">
            <mxPoint x="-870" y="700" as="sourcePoint" />
            <mxPoint x="-820" y="650" as="targetPoint" />
          </mxGeometry>
        </mxCell>
        <mxCell id="dq4jlqFbkEsJ6jXm5V4O-2" value="&amp;lt;&amp;lt;include&amp;gt;&amp;gt;" style="edgeLabel;html=1;align=center;verticalAlign=middle;resizable=0;points=[];" parent="XR87P99BnGPD38bFnwmb-105" connectable="0" vertex="1">
          <mxGeometry x="-0.1849" y="-1" relative="1" as="geometry">
            <mxPoint x="-6" y="-4" as="offset" />
          </mxGeometry>
        </mxCell>
        <mxCell id="dq4jlqFbkEsJ6jXm5V4O-1" value="" style="endArrow=none;html=1;rounded=0;exitX=1;exitY=0.3333333333333333;exitDx=0;exitDy=0;exitPerimeter=0;entryX=0;entryY=0.5;entryDx=0;entryDy=0;" parent="1" source="XR87P99BnGPD38bFnwmb-95" target="XR87P99BnGPD38bFnwmb-98" edge="1">
          <mxGeometry width="50" height="50" relative="1" as="geometry">
            <mxPoint x="-900" y="800" as="sourcePoint" />
            <mxPoint x="-850" y="750" as="targetPoint" />
          </mxGeometry>
        </mxCell>
        <mxCell id="dq4jlqFbkEsJ6jXm5V4O-3" value="" style="endArrow=classic;html=1;rounded=0;exitX=0;exitY=0.5;exitDx=0;exitDy=0;entryX=1;entryY=0.5;entryDx=0;entryDy=0;" parent="1" source="XR87P99BnGPD38bFnwmb-99" target="XR87P99BnGPD38bFnwmb-98" edge="1">
          <mxGeometry width="50" height="50" relative="1" as="geometry">
            <mxPoint x="-890" y="680" as="sourcePoint" />
            <mxPoint x="-840" y="630" as="targetPoint" />
          </mxGeometry>
        </mxCell>
        <mxCell id="dq4jlqFbkEsJ6jXm5V4O-4" value="Delete post" style="ellipse;whiteSpace=wrap;html=1;rotation=0;" parent="1" vertex="1">
          <mxGeometry x="-1030" y="700" width="110" height="50" as="geometry" />
        </mxCell>
        <mxCell id="dq4jlqFbkEsJ6jXm5V4O-5" value="Edit post" style="ellipse;whiteSpace=wrap;html=1;rotation=0;" parent="1" vertex="1">
          <mxGeometry x="-1020" y="580" width="110" height="50" as="geometry" />
        </mxCell>
        <mxCell id="dq4jlqFbkEsJ6jXm5V4O-6" value="" style="endArrow=classic;html=1;rounded=0;exitX=0;exitY=0;exitDx=0;exitDy=0;entryX=0.5;entryY=1;entryDx=0;entryDy=0;" parent="1" source="dq4jlqFbkEsJ6jXm5V4O-4" target="XR87P99BnGPD38bFnwmb-98" edge="1">
          <mxGeometry width="50" height="50" relative="1" as="geometry">
            <mxPoint x="-920" y="710" as="sourcePoint" />
            <mxPoint x="-870" y="660" as="targetPoint" />
          </mxGeometry>
        </mxCell>
        <mxCell id="dq4jlqFbkEsJ6jXm5V4O-7" value="" style="endArrow=classic;html=1;rounded=0;exitX=0;exitY=0.5;exitDx=0;exitDy=0;entryX=0.5;entryY=0;entryDx=0;entryDy=0;" parent="1" source="dq4jlqFbkEsJ6jXm5V4O-5" target="XR87P99BnGPD38bFnwmb-98" edge="1">
          <mxGeometry width="50" height="50" relative="1" as="geometry">
            <mxPoint x="-920" y="710" as="sourcePoint" />
            <mxPoint x="-870" y="660" as="targetPoint" />
          </mxGeometry>
        </mxCell>
        <mxCell id="dq4jlqFbkEsJ6jXm5V4O-9" value="Manage order" style="ellipse;whiteSpace=wrap;html=1;rotation=0;" parent="1" vertex="1">
          <mxGeometry x="-1140" y="760" width="110" height="50" as="geometry" />
        </mxCell>
        <mxCell id="dq4jlqFbkEsJ6jXm5V4O-10" value="" style="endArrow=none;html=1;rounded=0;entryX=1;entryY=0.3333333333333333;entryDx=0;entryDy=0;entryPerimeter=0;exitX=0;exitY=0.5;exitDx=0;exitDy=0;" parent="1" source="dq4jlqFbkEsJ6jXm5V4O-9" target="XR87P99BnGPD38bFnwmb-95" edge="1">
          <mxGeometry width="50" height="50" relative="1" as="geometry">
            <mxPoint x="-1170" y="800" as="sourcePoint" />
            <mxPoint x="-1120" y="750" as="targetPoint" />
          </mxGeometry>
        </mxCell>
        <mxCell id="dq4jlqFbkEsJ6jXm5V4O-11" value="Accept order" style="ellipse;whiteSpace=wrap;html=1;rotation=0;" parent="1" vertex="1">
          <mxGeometry x="-1190" y="830" width="110" height="50" as="geometry" />
        </mxCell>
        <mxCell id="dq4jlqFbkEsJ6jXm5V4O-12" value="Deny order" style="ellipse;whiteSpace=wrap;html=1;rotation=0;" parent="1" vertex="1">
          <mxGeometry x="-1040" y="820" width="110" height="50" as="geometry" />
        </mxCell>
        <mxCell id="dq4jlqFbkEsJ6jXm5V4O-14" value="" style="endArrow=classic;html=1;rounded=0;exitX=0.5;exitY=0;exitDx=0;exitDy=0;entryX=0;entryY=1;entryDx=0;entryDy=0;" parent="1" source="dq4jlqFbkEsJ6jXm5V4O-11" target="dq4jlqFbkEsJ6jXm5V4O-9" edge="1">
          <mxGeometry width="50" height="50" relative="1" as="geometry">
            <mxPoint x="-970" y="820" as="sourcePoint" />
            <mxPoint x="-920" y="770" as="targetPoint" />
          </mxGeometry>
        </mxCell>
        <mxCell id="dq4jlqFbkEsJ6jXm5V4O-15" value="" style="endArrow=classic;html=1;rounded=0;exitX=0;exitY=0;exitDx=0;exitDy=0;entryX=1;entryY=1;entryDx=0;entryDy=0;" parent="1" source="dq4jlqFbkEsJ6jXm5V4O-12" target="dq4jlqFbkEsJ6jXm5V4O-9" edge="1">
          <mxGeometry width="50" height="50" relative="1" as="geometry">
            <mxPoint x="-970" y="820" as="sourcePoint" />
            <mxPoint x="-920" y="770" as="targetPoint" />
          </mxGeometry>
        </mxCell>
        <mxCell id="dq4jlqFbkEsJ6jXm5V4O-18" value="View order list&amp;nbsp;" style="ellipse;whiteSpace=wrap;html=1;rotation=0;" parent="1" vertex="1">
          <mxGeometry x="-990" y="760" width="110" height="50" as="geometry" />
        </mxCell>
        <mxCell id="dq4jlqFbkEsJ6jXm5V4O-19" value="" style="endArrow=classic;html=1;rounded=0;exitX=0;exitY=0.5;exitDx=0;exitDy=0;entryX=1;entryY=0.5;entryDx=0;entryDy=0;" parent="1" source="dq4jlqFbkEsJ6jXm5V4O-18" target="dq4jlqFbkEsJ6jXm5V4O-9" edge="1">
          <mxGeometry width="50" height="50" relative="1" as="geometry">
            <mxPoint x="-970" y="900" as="sourcePoint" />
            <mxPoint x="-920" y="850" as="targetPoint" />
          </mxGeometry>
        </mxCell>
        <mxCell id="dq4jlqFbkEsJ6jXm5V4O-24" value="View report" style="ellipse;whiteSpace=wrap;html=1;rotation=0;" parent="1" vertex="1">
          <mxGeometry x="-1140" y="570" width="110" height="50" as="geometry" />
        </mxCell>
        <mxCell id="dq4jlqFbkEsJ6jXm5V4O-25" value="" style="endArrow=none;html=1;rounded=0;entryX=0;entryY=0.5;entryDx=0;entryDy=0;" parent="1" target="dq4jlqFbkEsJ6jXm5V4O-24" edge="1">
          <mxGeometry width="50" height="50" relative="1" as="geometry">
            <mxPoint x="-1260" y="660" as="sourcePoint" />
            <mxPoint x="-1130" y="580" as="targetPoint" />
          </mxGeometry>
        </mxCell>
        <mxCell id="dq4jlqFbkEsJ6jXm5V4O-26" value="&lt;b style=&quot;&quot;&gt;&lt;font style=&quot;font-size: 15px;&quot;&gt;Buyer&lt;/font&gt;&lt;/b&gt;" style="shape=umlActor;verticalLabelPosition=bottom;verticalAlign=top;html=1;outlineConnect=0;strokeWidth=3;fontSize=13;" parent="1" vertex="1">
          <mxGeometry x="-1290" y="385" width="30" height="60" as="geometry" />
        </mxCell>
        <mxCell id="dq4jlqFbkEsJ6jXm5V4O-30" value="&lt;font style=&quot;font-size: 13px;&quot;&gt;Login&lt;/font&gt;" style="ellipse;whiteSpace=wrap;html=1;rotation=0;" parent="1" vertex="1">
          <mxGeometry x="-1120" y="200" width="110" height="50" as="geometry" />
        </mxCell>
        <mxCell id="dq4jlqFbkEsJ6jXm5V4O-31" value="" style="endArrow=none;html=1;rounded=0;exitX=1;exitY=0.3333333333333333;exitDx=0;exitDy=0;exitPerimeter=0;entryX=0;entryY=0.5;entryDx=0;entryDy=0;" parent="1" source="dq4jlqFbkEsJ6jXm5V4O-26" target="dq4jlqFbkEsJ6jXm5V4O-30" edge="1">
          <mxGeometry width="50" height="50" relative="1" as="geometry">
            <mxPoint x="-860" y="510" as="sourcePoint" />
            <mxPoint x="-810" y="460" as="targetPoint" />
          </mxGeometry>
        </mxCell>
        <mxCell id="dq4jlqFbkEsJ6jXm5V4O-32" value="&lt;span style=&quot;font-size: 13px;&quot;&gt;Manage order&lt;/span&gt;" style="ellipse;whiteSpace=wrap;html=1;rotation=0;" parent="1" vertex="1">
          <mxGeometry x="-1185" y="475" width="100" height="40" as="geometry" />
        </mxCell>
        <mxCell id="dq4jlqFbkEsJ6jXm5V4O-33" value="" style="endArrow=none;html=1;rounded=0;exitX=1;exitY=0.3333333333333333;exitDx=0;exitDy=0;exitPerimeter=0;entryX=0;entryY=0.5;entryDx=0;entryDy=0;" parent="1" source="dq4jlqFbkEsJ6jXm5V4O-26" target="dq4jlqFbkEsJ6jXm5V4O-32" edge="1">
          <mxGeometry width="50" height="50" relative="1" as="geometry">
            <mxPoint x="-860" y="510" as="sourcePoint" />
            <mxPoint x="-810" y="460" as="targetPoint" />
          </mxGeometry>
        </mxCell>
        <mxCell id="dq4jlqFbkEsJ6jXm5V4O-40" value="&lt;span style=&quot;font-size: 13px;&quot;&gt;Request become&lt;br&gt;Seller&lt;/span&gt;" style="ellipse;whiteSpace=wrap;html=1;rotation=0;" parent="1" vertex="1">
          <mxGeometry x="-930" y="250" width="110" height="65" as="geometry" />
        </mxCell>
        <mxCell id="dq4jlqFbkEsJ6jXm5V4O-41" value="" style="endArrow=none;html=1;rounded=0;exitX=1;exitY=0.3333333333333333;exitDx=0;exitDy=0;exitPerimeter=0;entryX=0;entryY=0.5;entryDx=0;entryDy=0;" parent="1" source="dq4jlqFbkEsJ6jXm5V4O-26" target="dq4jlqFbkEsJ6jXm5V4O-40" edge="1">
          <mxGeometry width="50" height="50" relative="1" as="geometry">
            <mxPoint x="-1260" y="410" as="sourcePoint" />
            <mxPoint x="-1090" y="350" as="targetPoint" />
          </mxGeometry>
        </mxCell>
        <mxCell id="dq4jlqFbkEsJ6jXm5V4O-42" value="" style="endArrow=classic;html=1;rounded=0;exitX=0;exitY=0.5;exitDx=0;exitDy=0;entryX=1;entryY=1;entryDx=0;entryDy=0;dashed=1;" parent="1" source="XR87P99BnGPD38bFnwmb-16" target="dq4jlqFbkEsJ6jXm5V4O-40" edge="1">
          <mxGeometry width="50" height="50" relative="1" as="geometry">
            <mxPoint x="-970" y="410" as="sourcePoint" />
            <mxPoint x="-920" y="360" as="targetPoint" />
          </mxGeometry>
        </mxCell>
        <mxCell id="dq4jlqFbkEsJ6jXm5V4O-45" value="&lt;font style=&quot;font-size: 12px;&quot;&gt;&amp;lt;&amp;lt;include&amp;gt;&amp;gt;&lt;/font&gt;" style="edgeLabel;html=1;align=center;verticalAlign=middle;resizable=0;points=[];" parent="dq4jlqFbkEsJ6jXm5V4O-42" connectable="0" vertex="1">
          <mxGeometry x="-0.1873" y="1" relative="1" as="geometry">
            <mxPoint as="offset" />
          </mxGeometry>
        </mxCell>
        <mxCell id="dq4jlqFbkEsJ6jXm5V4O-43" value="" style="endArrow=classic;html=1;rounded=0;exitX=0;exitY=0.5;exitDx=0;exitDy=0;entryX=0.827;entryY=0.15;entryDx=0;entryDy=0;dashed=1;entryPerimeter=0;" parent="1" source="XR87P99BnGPD38bFnwmb-15" target="dq4jlqFbkEsJ6jXm5V4O-40" edge="1">
          <mxGeometry width="50" height="50" relative="1" as="geometry">
            <mxPoint x="-740" y="335" as="sourcePoint" />
            <mxPoint x="-940" y="320" as="targetPoint" />
          </mxGeometry>
        </mxCell>
        <mxCell id="dq4jlqFbkEsJ6jXm5V4O-44" value="&lt;font style=&quot;font-size: 12px;&quot;&gt;&amp;lt;&amp;lt;include&amp;gt;&amp;gt;&lt;/font&gt;" style="edgeLabel;html=1;align=center;verticalAlign=middle;resizable=0;points=[];" parent="dq4jlqFbkEsJ6jXm5V4O-43" connectable="0" vertex="1">
          <mxGeometry x="-0.0985" relative="1" as="geometry">
            <mxPoint as="offset" />
          </mxGeometry>
        </mxCell>
        <mxCell id="dq4jlqFbkEsJ6jXm5V4O-46" value="&lt;font style=&quot;font-size: 13px;&quot;&gt;Send message&lt;/font&gt;" style="ellipse;whiteSpace=wrap;html=1;rotation=0;" parent="1" vertex="1">
          <mxGeometry x="-1010" y="315" width="100" height="50" as="geometry" />
        </mxCell>
        <mxCell id="dq4jlqFbkEsJ6jXm5V4O-47" value="" style="endArrow=none;html=1;rounded=0;exitX=1;exitY=0.3333333333333333;exitDx=0;exitDy=0;exitPerimeter=0;entryX=0;entryY=0.5;entryDx=0;entryDy=0;" parent="1" source="dq4jlqFbkEsJ6jXm5V4O-26" target="dq4jlqFbkEsJ6jXm5V4O-46" edge="1">
          <mxGeometry width="50" height="50" relative="1" as="geometry">
            <mxPoint x="-1130" y="430" as="sourcePoint" />
            <mxPoint x="-1080" y="380" as="targetPoint" />
          </mxGeometry>
        </mxCell>
        <mxCell id="dq4jlqFbkEsJ6jXm5V4O-48" value="&lt;font style=&quot;font-size: 13px;&quot;&gt;Add service to wishlist&lt;/font&gt;" style="ellipse;whiteSpace=wrap;html=1;rotation=0;" parent="1" vertex="1">
          <mxGeometry x="-1090" y="365" width="100" height="45" as="geometry" />
        </mxCell>
        <mxCell id="dq4jlqFbkEsJ6jXm5V4O-49" value="" style="endArrow=none;html=1;rounded=0;exitX=1;exitY=0.3333333333333333;exitDx=0;exitDy=0;exitPerimeter=0;entryX=0;entryY=0.5;entryDx=0;entryDy=0;" parent="1" source="dq4jlqFbkEsJ6jXm5V4O-26" target="dq4jlqFbkEsJ6jXm5V4O-48" edge="1">
          <mxGeometry width="50" height="50" relative="1" as="geometry">
            <mxPoint x="-1130" y="470" as="sourcePoint" />
            <mxPoint x="-1080" y="420" as="targetPoint" />
          </mxGeometry>
        </mxCell>
        <mxCell id="dq4jlqFbkEsJ6jXm5V4O-50" value="&lt;font style=&quot;font-size: 13px;&quot;&gt;View wishlist&lt;/font&gt;" style="ellipse;whiteSpace=wrap;html=1;rotation=0;" parent="1" vertex="1">
          <mxGeometry x="-940" y="400" width="110" height="50" as="geometry" />
        </mxCell>
        <mxCell id="dq4jlqFbkEsJ6jXm5V4O-51" value="" style="endArrow=classic;html=1;rounded=0;entryX=1;entryY=0.5;entryDx=0;entryDy=0;dashed=1;exitX=0;exitY=0.5;exitDx=0;exitDy=0;" parent="1" source="dq4jlqFbkEsJ6jXm5V4O-50" target="dq4jlqFbkEsJ6jXm5V4O-48" edge="1">
          <mxGeometry width="50" height="50" relative="1" as="geometry">
            <mxPoint x="-900" y="550" as="sourcePoint" />
            <mxPoint x="-850" y="500" as="targetPoint" />
          </mxGeometry>
        </mxCell>
        <mxCell id="dq4jlqFbkEsJ6jXm5V4O-52" value="&amp;lt;&amp;lt;extend&amp;gt;&amp;gt;" style="edgeLabel;html=1;align=center;verticalAlign=middle;resizable=0;points=[];" parent="dq4jlqFbkEsJ6jXm5V4O-51" connectable="0" vertex="1">
          <mxGeometry x="-0.1846" y="-3" relative="1" as="geometry">
            <mxPoint as="offset" />
          </mxGeometry>
        </mxCell>
        <mxCell id="dq4jlqFbkEsJ6jXm5V4O-54" value="" style="endArrow=none;html=1;rounded=0;" parent="1" edge="1">
          <mxGeometry width="50" height="50" relative="1" as="geometry">
            <mxPoint x="-1400" y="1020" as="sourcePoint" />
            <mxPoint x="-1400" y="415" as="targetPoint" />
          </mxGeometry>
        </mxCell>
        <mxCell id="dq4jlqFbkEsJ6jXm5V4O-57" value="&lt;span style=&quot;font-size: 13px;&quot;&gt;Create order&lt;/span&gt;" style="ellipse;whiteSpace=wrap;html=1;rotation=0;" parent="1" vertex="1">
          <mxGeometry x="-1050" y="532.5" width="110" height="35" as="geometry" />
        </mxCell>
        <mxCell id="dq4jlqFbkEsJ6jXm5V4O-58" value="&lt;span style=&quot;font-size: 13px;&quot;&gt;View order&lt;/span&gt;" style="ellipse;whiteSpace=wrap;html=1;rotation=0;" parent="1" vertex="1">
          <mxGeometry x="-1035" y="475" width="100" height="40" as="geometry" />
        </mxCell>
        <mxCell id="dq4jlqFbkEsJ6jXm5V4O-59" value="" style="endArrow=classic;html=1;rounded=0;exitX=0;exitY=0.5;exitDx=0;exitDy=0;entryX=1;entryY=1;entryDx=0;entryDy=0;" parent="1" source="dq4jlqFbkEsJ6jXm5V4O-57" target="dq4jlqFbkEsJ6jXm5V4O-32" edge="1">
          <mxGeometry width="50" height="50" relative="1" as="geometry">
            <mxPoint x="-960" y="480" as="sourcePoint" />
            <mxPoint x="-910" y="430" as="targetPoint" />
          </mxGeometry>
        </mxCell>
        <mxCell id="dq4jlqFbkEsJ6jXm5V4O-60" value="" style="endArrow=classic;html=1;rounded=0;exitX=0;exitY=0.5;exitDx=0;exitDy=0;entryX=1;entryY=0.5;entryDx=0;entryDy=0;" parent="1" source="dq4jlqFbkEsJ6jXm5V4O-58" target="dq4jlqFbkEsJ6jXm5V4O-32" edge="1">
          <mxGeometry width="50" height="50" relative="1" as="geometry">
            <mxPoint x="-960" y="480" as="sourcePoint" />
            <mxPoint x="-910" y="430" as="targetPoint" />
          </mxGeometry>
        </mxCell>
        <mxCell id="EHQTQU_7z-duW2au_iw_-5" value="" style="endArrow=none;html=1;rounded=0;exitX=1;exitY=0.3333333333333333;exitDx=0;exitDy=0;exitPerimeter=0;entryX=0;entryY=0.5;entryDx=0;entryDy=0;" parent="1" source="XR87P99BnGPD38bFnwmb-68" target="XR87P99BnGPD38bFnwmb-86" edge="1">
          <mxGeometry width="50" height="50" relative="1" as="geometry">
            <mxPoint x="-900" y="960" as="sourcePoint" />
            <mxPoint x="-850" y="910" as="targetPoint" />
          </mxGeometry>
        </mxCell>
        <mxCell id="EHQTQU_7z-duW2au_iw_-7" value="&lt;font style=&quot;font-size: 13px;&quot;&gt;Update personal information&lt;/font&gt;" style="ellipse;whiteSpace=wrap;html=1;rotation=0;" parent="1" vertex="1">
          <mxGeometry x="-1110" y="415" width="110" height="50" as="geometry" />
        </mxCell>
        <mxCell id="EHQTQU_7z-duW2au_iw_-8" value="" style="endArrow=none;html=1;rounded=0;entryX=0;entryY=0.5;entryDx=0;entryDy=0;exitX=1;exitY=0.3333333333333333;exitDx=0;exitDy=0;exitPerimeter=0;" parent="1" source="dq4jlqFbkEsJ6jXm5V4O-26" target="EHQTQU_7z-duW2au_iw_-7" edge="1">
          <mxGeometry width="50" height="50" relative="1" as="geometry">
            <mxPoint x="-1250" y="410" as="sourcePoint" />
            <mxPoint x="-850" y="390" as="targetPoint" />
          </mxGeometry>
        </mxCell>
        <mxCell id="FOt5mNvX_gFbSndjB45y-2" value="" style="endArrow=none;html=1;rounded=0;entryX=0.5;entryY=0.5;entryDx=0;entryDy=0;entryPerimeter=0;" parent="1" target="dq4jlqFbkEsJ6jXm5V4O-26" edge="1">
          <mxGeometry width="50" height="50" relative="1" as="geometry">
            <mxPoint x="-1400" y="415" as="sourcePoint" />
            <mxPoint x="-1000" y="490" as="targetPoint" />
          </mxGeometry>
        </mxCell>
        <mxCell id="FOt5mNvX_gFbSndjB45y-3" value="" style="endArrow=classic;html=1;rounded=0;" parent="1" edge="1">
          <mxGeometry width="50" height="50" relative="1" as="geometry">
            <mxPoint x="-1400" y="1020" as="sourcePoint" />
            <mxPoint x="-1310" y="1020" as="targetPoint" />
          </mxGeometry>
        </mxCell>
        <mxCell id="FOt5mNvX_gFbSndjB45y-4" value="" style="endArrow=classic;html=1;rounded=0;exitX=0.5;exitY=0;exitDx=0;exitDy=0;exitPerimeter=0;" parent="1" source="XR87P99BnGPD38bFnwmb-95" edge="1">
          <mxGeometry width="50" height="50" relative="1" as="geometry">
            <mxPoint x="-750" y="670" as="sourcePoint" />
            <mxPoint x="-1275" y="480" as="targetPoint" />
          </mxGeometry>
        </mxCell>
        <mxCell id="FOt5mNvX_gFbSndjB45y-5" value="" style="endArrow=classic;html=1;rounded=0;" parent="1" edge="1">
          <mxGeometry width="50" height="50" relative="1" as="geometry">
            <mxPoint x="-255" y="840" as="sourcePoint" />
            <mxPoint x="-255" y="590" as="targetPoint" />
          </mxGeometry>
        </mxCell>
        <mxCell id="FOt5mNvX_gFbSndjB45y-6" value="" style="endArrow=none;html=1;rounded=0;entryX=0;entryY=0.3333333333333333;entryDx=0;entryDy=0;entryPerimeter=0;exitX=1;exitY=0.5;exitDx=0;exitDy=0;" parent="1" source="XR87P99BnGPD38bFnwmb-62" target="XR87P99BnGPD38bFnwmb-52" edge="1">
          <mxGeometry width="50" height="50" relative="1" as="geometry">
            <mxPoint x="-790" y="940" as="sourcePoint" />
            <mxPoint x="-740" y="890" as="targetPoint" />
          </mxGeometry>
        </mxCell>
        <mxCell id="FOt5mNvX_gFbSndjB45y-7" value="Filter category" style="ellipse;whiteSpace=wrap;html=1;rotation=0;" parent="1" vertex="1">
          <mxGeometry x="-870" y="1040" width="110" height="50" as="geometry" />
        </mxCell>
        <mxCell id="FOt5mNvX_gFbSndjB45y-8" value="Filter Price" style="ellipse;whiteSpace=wrap;html=1;rotation=0;" parent="1" vertex="1">
          <mxGeometry x="-770" y="1080" width="110" height="50" as="geometry" />
        </mxCell>
        <mxCell id="FOt5mNvX_gFbSndjB45y-9" value="Filter delivery time" style="ellipse;whiteSpace=wrap;html=1;rotation=0;" parent="1" vertex="1">
          <mxGeometry x="-880" y="1110.5" width="110" height="50" as="geometry" />
        </mxCell>
        <mxCell id="FOt5mNvX_gFbSndjB45y-10" value="" style="endArrow=classic;html=1;rounded=0;exitX=0;exitY=0.5;exitDx=0;exitDy=0;entryX=0.5;entryY=0;entryDx=0;entryDy=0;" parent="1" source="FOt5mNvX_gFbSndjB45y-7" target="XR87P99BnGPD38bFnwmb-82" edge="1">
          <mxGeometry width="50" height="50" relative="1" as="geometry">
            <mxPoint x="-1020" y="1070" as="sourcePoint" />
            <mxPoint x="-970" y="1020" as="targetPoint" />
          </mxGeometry>
        </mxCell>
        <mxCell id="FOt5mNvX_gFbSndjB45y-11" value="" style="endArrow=classic;html=1;rounded=0;exitX=0;exitY=0.5;exitDx=0;exitDy=0;entryX=1;entryY=0.5;entryDx=0;entryDy=0;" parent="1" source="FOt5mNvX_gFbSndjB45y-8" target="XR87P99BnGPD38bFnwmb-82" edge="1">
          <mxGeometry width="50" height="50" relative="1" as="geometry">
            <mxPoint x="-1020" y="1070" as="sourcePoint" />
            <mxPoint x="-970" y="1020" as="targetPoint" />
          </mxGeometry>
        </mxCell>
        <mxCell id="FOt5mNvX_gFbSndjB45y-12" value="" style="endArrow=classic;html=1;rounded=0;exitX=0;exitY=0.5;exitDx=0;exitDy=0;entryX=0.5;entryY=1;entryDx=0;entryDy=0;" parent="1" source="FOt5mNvX_gFbSndjB45y-9" target="XR87P99BnGPD38bFnwmb-82" edge="1">
          <mxGeometry width="50" height="50" relative="1" as="geometry">
            <mxPoint x="-1020" y="1070" as="sourcePoint" />
            <mxPoint x="-970" y="1020" as="targetPoint" />
          </mxGeometry>
        </mxCell>
        <mxCell id="FOt5mNvX_gFbSndjB45y-13" value="View Post List" style="ellipse;whiteSpace=wrap;html=1;rotation=0;" parent="1" vertex="1">
          <mxGeometry x="-990" y="1010" width="110" height="50" as="geometry" />
        </mxCell>
        <mxCell id="FOt5mNvX_gFbSndjB45y-14" value="" style="endArrow=none;html=1;rounded=0;entryX=0;entryY=0.5;entryDx=0;entryDy=0;" parent="1" target="FOt5mNvX_gFbSndjB45y-13" edge="1">
          <mxGeometry width="50" height="50" relative="1" as="geometry">
            <mxPoint x="-1260" y="1020" as="sourcePoint" />
            <mxPoint x="-1040" y="1020" as="targetPoint" />
          </mxGeometry>
        </mxCell>
        <mxCell id="FOt5mNvX_gFbSndjB45y-15" value="&lt;font style=&quot;font-size: 13px;&quot;&gt;Logout&lt;/font&gt;" style="ellipse;whiteSpace=wrap;html=1;rotation=0;" parent="1" vertex="1">
          <mxGeometry x="-1100" y="260" width="110" height="50" as="geometry" />
        </mxCell>
        <mxCell id="FOt5mNvX_gFbSndjB45y-16" value="" style="endArrow=none;html=1;rounded=0;exitX=1;exitY=0.3333333333333333;exitDx=0;exitDy=0;exitPerimeter=0;entryX=0;entryY=0.5;entryDx=0;entryDy=0;" parent="1" source="dq4jlqFbkEsJ6jXm5V4O-26" target="FOt5mNvX_gFbSndjB45y-15" edge="1">
          <mxGeometry width="50" height="50" relative="1" as="geometry">
            <mxPoint x="-1260" y="410" as="sourcePoint" />
            <mxPoint x="-1060" y="300" as="targetPoint" />
          </mxGeometry>
        </mxCell>
      </root>
    </mxGraphModel>
  </diagram>
  <diagram id="M31o6EaRFdaWjFHCVngl" name="Page-2">
    <mxGraphModel grid="1" page="1" gridSize="10" guides="1" tooltips="1" connect="1" arrows="1" fold="1" pageScale="1" pageWidth="850" pageHeight="1100" math="0" shadow="0">
      <root>
        <mxCell id="0" />
        <mxCell id="1" parent="0" />
      </root>
    </mxGraphModel>
  </diagram>
</mxfile>
